<?xml version="1.0" encoding="utf-8"?>
<!-- Generator: Adobe Illustrator 16.0.4, SVG Export Plug-In . SVG Version: 6.00 Build 0)  -->
<!DOCTYPE svg PUBLIC "-//W3C//DTD SVG 1.1//EN" "http://www.w3.org/Graphics/SVG/1.1/DTD/svg11.dtd">
<svg version="1.1" id="Layer_1" xmlns="http://www.w3.org/2000/svg" xmlns:xlink="http://www.w3.org/1999/xlink" x="0px" y="0px"
	 width="750px" height="157.407px" viewBox="0 0 750 157.407" enable-background="new 0 0 750 157.407" xml:space="preserve">
<g id="Background">
</g>
<g id="Wordmark">
	<g>
		<g>
			<g>
				<path fill="#FFFFFF" d="M252.819,154.645V147.5l-8.7-1.27c-0.308-3.127-0.445-7.471-0.382-12.938
					c0.034-5.471,0.144-11.205,0.315-17.18c0.164-5.943,0.25-11.254,0.273-15.887c0.025-7.076-0.693-12.879-2.127-17.496
					c-1.433-4.583-3.737-8.414-6.958-11.479c-2.448-2.343-5.251-4.227-8.427-5.607c-3.143-1.43-6.458-2.139-9.921-2.162
					c-4.485-0.045-8.648,0.873-12.539,2.697c-3.875,1.847-8.45,4.783-13.73,8.854c-0.796,0.624-1.5,1.15-2.099,1.518
					c-0.618,0.367-1.289,0.584-1.964,0.584c-0.474,0-0.804-0.316-0.968-0.941c-0.164-0.637-0.248-1.588-0.23-2.85
					c-0.02-3.166-0.805-5.676-2.329-7.5c-1.524-1.834-3.709-2.738-6.544-2.778c-4.418,0.258-9.05,1.866-13.884,4.832
					c-4.816,2.938-8.735,5.618-11.754,7.959v4.603c0.85,1.072,1.913,2.293,3.207,3.621c1.288,1.303,2.5,2.545,3.66,3.764
					c1.006,1.5,1.797,2.977,2.406,4.377c0.584,1.359,0.906,3.008,1.021,4.842c0.215,2.928,0.363,6.6,0.459,10.967
					c0.097,4.375,0.159,8.92,0.159,13.643c0,2.146-0.049,4.955-0.078,8.389c-0.052,3.471-0.134,6.777-0.258,9.951
					c-0.115,3.205-0.283,5.486-0.489,6.863l-10.086,2.324c-0.004,1.479,0.116,2.928,0.371,4.336c0.268,1.369,0.752,2.65,1.447,3.82
					c3.018-0.406,5.73-0.715,8.125-0.914c2.406-0.246,4.614-0.336,6.607-0.336c2.284,0.049,5.318,0.229,9.136,0.535
					c3.8,0.299,6.737,0.477,8.825,0.514c1.955,0.021,3.743-0.129,5.356-0.416c1.6-0.299,3.396-0.861,5.355-1.676l-0.201-7.561
					c-0.954-0.061-1.983-0.129-3.104-0.18c-1.083-0.049-2.011-0.26-2.769-0.654c-1.198-0.09-2.052-0.662-2.601-1.668
					c-0.556-1.053-0.905-3.65-1.05-7.859c-0.148-4.205-0.2-11.133-0.171-20.73c-0.047-6.219,0-12.086,0.12-17.562
					c0.129-5.445,0.618-9.207,1.48-11.232c1.13-1.822,3.21-3.32,6.262-4.492c3.071-1.174,5.755-1.779,8.077-1.816
					c3.167,0.059,5.907,0.793,8.227,2.213c2.324,1.43,4.096,3.205,5.328,5.369c1.025,2.359,1.802,5.18,2.366,8.443
					c0.566,3.285,0.857,8.523,0.862,15.699c0,4.941-0.053,9.643-0.173,14.129c-0.125,4.467-0.336,8.168-0.637,11.096
					c-0.273,2.807-0.79,4.891-1.542,6.238c-0.734,1.352-1.697,2.217-2.89,2.594c-1.083,0.314-2.061,0.613-2.907,0.922
					c-0.853,0.277-1.779,0.543-2.765,0.771c-0.307,1.928-0.345,3.514-0.124,4.754c0.231,1.25,0.732,2.541,1.544,3.82
					c2.883-0.406,5.8-0.715,8.747-0.914c2.923-0.246,5.529-0.336,7.797-0.336c2.571,0.049,5.481,0.229,8.69,0.535
					c3.234,0.299,5.911,0.477,8.072,0.514c2.013,0,3.843-0.209,5.51-0.633C249.868,156.104,251.391,155.479,252.819,154.645z"/>
				<path fill="#FFFFFF" d="M321.351,128.389c-0.066-4.832-1.34-9.15-3.782-12.959c-2.443-3.801-5.625-7.135-9.53-9.963
					c-2.41-1.768-5.073-3.572-8.001-5.389c-2.937-1.797-6.257-3.635-9.981-5.518c-3.21-1.668-5.798-3.543-7.798-5.598
					c-2.014-2.072-3.049-4.404-3.116-7.018c0.103-3.205,1.447-5.784,4.062-7.719c2.607-1.943,5.844-2.946,9.678-2.996
					c4.854-0.059,8.623,1.15,11.317,3.552c2.714,2.433,4.456,6.371,5.247,11.779c0.382,0.557,1.725,0.885,4.047,0.99
					c2.319,0.131,3.931-0.059,4.822-0.555c0.027-1.211,0.134-2.5,0.31-3.791c0.165-1.311,0.284-2.986,0.312-5.032
					c0.01-2.549-0.532-4.703-1.683-6.547c-1.117-1.847-2.974-3.455-5.601-4.785c-2.913-1.586-6.102-2.748-9.591-3.492
					c-3.458-0.766-7.269-1.137-11.403-1.131c-9.836,0.064-17.637,2.47-23.414,7.203c-5.782,4.734-8.744,11.282-8.878,19.649
					c0.062,4.506,1.141,8.494,3.226,11.918c2.074,3.414,4.767,6.41,8.062,8.898c2.499,2.006,5.02,3.842,7.53,5.52
					c2.551,1.678,5.205,3.205,8.008,4.572c4.25,2.451,7.718,4.893,10.402,7.326c2.692,2.438,4.082,5.227,4.157,8.443
					c-0.123,3.918-1.675,6.982-4.622,9.209c-2.927,2.23-6.44,3.344-10.528,3.373c-5.043-0.033-9.199-1.551-12.49-4.516
					c-3.303-2.998-5.188-7.316-5.684-12.902c-2.236-0.564-3.962-0.764-5.122-0.564c-1.14,0.139-2.215,0.268-3.148,0.336
					c-0.191,1.65-0.307,3.105-0.34,4.387c-0.044,1.254-0.069,2.611-0.069,4.029c-0.046,3.484,0.249,6.094,0.887,7.859
					c0.638,1.746,1.877,3.268,3.761,4.535c2.884,2.031,6.274,3.66,10.104,4.949c3.848,1.281,8.267,1.914,13.3,1.955
					c10.668-0.131,19.237-2.906,25.638-8.314C317.893,144.692,321.17,137.45,321.351,128.389z"/>
				<path fill="#FFFFFF" d="M550.123,102.958c-0.348-12.367-3.989-22.221-10.905-29.512c-6.909-7.314-16.192-11.064-27.864-11.223
					c-13.004,0.326-23.338,5.041-30.992,14.16c-7.682,9.12-11.623,20.551-11.812,34.352c0.188,13.734,3.973,25.076,11.348,33.928
					c7.358,8.871,17.266,13.438,29.66,13.742c8.499-0.059,16.126-2.551,22.887-7.443c6.738-4.898,11.909-11.785,15.473-20.668
					l-5.874-3.803c-2.824,4.031-5.757,6.867-8.704,8.455c-2.982,1.568-6.596,2.344-10.868,2.273
					c-9.039-0.188-16.306-3.027-21.81-8.492c-5.514-5.459-8.348-12.443-8.51-20.939c0-0.713,0.061-1.43,0.114-2.094
					c0.064-0.684,0.087-1.389,0.102-2.102L550.123,102.958z M527.123,83.834c0.079,3.354-0.926,5.943-3.025,7.777
					c-2.071,1.838-5.751,2.959-10.911,3.355c-3.163,0.219-5.925,0.408-8.345,0.586c-2.402,0.17-4.854,0.246-7.417,0.268
					c-1.282-0.02-2.185-0.201-2.704-0.594c-0.521-0.379-0.756-0.875-0.733-1.521c0.032-1.566,0.768-3.684,2.17-6.352
					c1.405-2.67,3.246-5.328,5.506-7.928c1.792-2.084,3.979-3.833,6.545-5.288c2.569-1.461,5.111-2.215,7.593-2.283
					c3.209,0.07,5.899,1.191,8.021,3.384C525.94,77.445,527.045,80.321,527.123,83.834z"/>
				<path fill="#FFFFFF" d="M702.749,128.389c-0.066-4.832-1.342-9.15-3.779-12.959c-2.45-3.801-5.604-7.135-9.541-9.963
					c-2.409-1.768-5.077-3.572-7.991-5.389c-2.968-1.797-6.271-3.635-9.994-5.518c-3.2-1.668-5.808-3.543-7.806-5.598
					c-2.013-2.072-3.051-4.404-3.109-7.018c0.107-3.205,1.466-5.784,4.071-7.719c2.601-1.943,5.85-2.946,9.676-2.996
					c4.852-0.059,8.61,1.15,11.311,3.552c2.717,2.433,4.462,6.371,5.254,11.779c0.374,0.557,1.735,0.885,4.073,0.99
					c2.294,0.131,3.899-0.059,4.812-0.555c0-1.211,0.119-2.5,0.294-3.791c0.159-1.311,0.269-2.986,0.287-5.032
					c0.054-2.549-0.515-4.703-1.648-6.547c-1.134-1.847-3.025-3.455-5.61-4.785c-2.903-1.586-6.104-2.748-9.571-3.492
					c-3.49-0.766-7.271-1.137-11.43-1.131c-9.802,0.064-17.632,2.47-23.422,7.203c-5.79,4.732-8.742,11.282-8.854,19.649
					c0.06,4.506,1.133,8.494,3.224,11.918c2.085,3.414,4.778,6.41,8.05,8.898c2.511,2.006,5.019,3.842,7.551,5.52
					c2.53,1.678,5.2,3.205,8.013,4.572c4.21,2.451,7.668,4.893,10.395,7.326c2.683,2.438,4.053,5.227,4.134,8.443
					c-0.149,3.918-1.664,6.982-4.623,9.209c-2.916,2.23-6.44,3.344-10.517,3.373c-5.056-0.033-9.206-1.551-12.51-4.516
					c-3.277-2.998-5.165-7.316-5.668-12.902c-2.233-0.564-3.935-0.764-5.113-0.564c-1.173,0.139-2.231,0.268-3.149,0.336
					c-0.212,1.65-0.309,3.105-0.36,4.387c-0.041,1.254-0.041,2.611-0.041,4.029c-0.052,3.484,0.268,6.094,0.872,7.859
					c0.629,1.746,1.887,3.268,3.777,4.535c2.896,2.031,6.248,3.66,10.104,4.949c3.846,1.281,8.27,1.914,13.291,1.955
					c10.676-0.131,19.222-2.906,25.655-8.314C699.278,144.692,702.604,137.45,702.749,128.389z"/>
				<path fill="#FFFFFF" d="M621.211,63.482c-1.498-0.288-3.398-0.438-5.795-0.417c-3.902-0.054-7.327,1.2-10.224,3.841
					c-2.889,2.59-6.075,6.928-9.582,12.95c-0.402,0.479-0.815,0.932-1.216,1.371c-0.414,0.457-0.796,0.715-1.191,0.744
					c-0.717,0.059-1.123-0.23-1.352-0.844c-0.197-0.646-0.304-1.956-0.273-3.989c0.021-4.356-0.729-7.78-2.233-10.262
					c-1.514-2.52-3.938-3.766-7.247-3.809c-1.521-0.02-2.914,0.209-4.257,0.734c-1.297,0.486-3.095,1.369-5.431,2.609
					c-3.114,1.688-5.709,3.167-7.777,4.426c-2.049,1.26-4.247,2.312-6.557,3.155v5.658c2.229,2.49,4.332,4.961,6.305,7.473
					c1.987,2.521,3.184,4.621,3.604,6.379c0.702,4.307,0.972,9.914,0.798,16.779c-0.198,6.865-0.331,16.205-0.411,27.973
					c-0.062,3.363-0.607,5.646-1.662,6.816c-1.036,1.162-2.093,1.926-3.191,2.223c-1.143,0.438-2.285,0.883-3.415,1.32
					c-1.125,0.438-2.109,0.795-2.843,1.002c-0.174,0.338-0.287,0.717-0.287,1.15c0,0.436,0.111,0.824,0.287,1.162
					c0,0.812,0.108,1.605,0.31,2.391c0.191,0.814,0.508,1.836,0.917,3.035c3.627-0.404,6.706-0.715,9.173-0.912
					c2.48-0.246,5.559-0.338,9.188-0.338c4.841,0.049,8.914,0.178,12.322,0.416c3.367,0.248,6.043,0.396,8.065,0.43
					c1.675,0,3.342-0.18,5.04-0.508c1.688-0.369,3.567-0.984,5.668-1.799c0.034-0.971,0.082-1.953,0.146-2.896
					c0.095-0.973-0.108-2.311-0.567-4.02l-13.34-1.885c-0.103-1.508-0.279-2.945-0.446-4.354c-0.208-1.41-0.327-2.699-0.344-3.861
					c-0.38-4.334-0.5-9.686-0.38-16.055c0.091-6.352,0.145-12.295,0.191-17.779c-0.096-5.133,0.492-8.943,1.736-11.424
					c1.286-2.48,3.791-3.721,7.534-3.701c3.096,0.141,6.348,0.695,9.724,1.676c3.371,0.965,6.486,1.537,9.269,1.678
					c0,0,9.502,2.918,9.365-11.611C630.771,73.119,627.021,63.889,621.211,63.482z"/>
				<path fill="#FFFFFF" d="M143.695,146.934c-0.848-0.229-1.59-0.455-2.214-0.691c-2.271-0.58-4.188-1.621-5.787-3.139
					c-1.602-1.537-3.316-4.316-5.17-8.346c-1.874-4.029-4.327-10.062-7.412-18.148c-3.096-8.049-6.296-16.84-9.591-26.387
					c-3.302-9.516-6.334-18.506-9.094-26.971c-2.764-8.464-4.887-15.103-6.358-19.949c-0.351-1.217-0.695-2.504-1.035-3.854
					c-0.025-0.08-6.296-20.409-10.066-31.457c-0.042-0.095-1.802-4.489-6.18-3.591c-4.427,0.914-9.937,2.48-10.564,3.613
					c-1.969,3.274-4.01,9.298-4.01,9.298c-0.911,2.004-1.864,4.505-2.884,7.511c-1.132,3.22-2.975,8.702-5.49,16.432
					c-2.5,7.741-5.433,16.672-8.839,26.813c-3.407,10.144-7.009,20.441-10.819,30.861c-3.828,10.459-7.617,19.984-11.396,28.619
					c-2.668,6.439-5.462,11.279-8.356,14.586c-2.903,3.295-6.838,5.566-11.844,6.857l1.025,8.791
					c4.082-0.426,8.322-0.836,12.658-1.143c4.361-0.346,7.871-0.514,10.554-0.535c3.167,0.049,6.061,0.23,8.658,0.535
					c2.602,0.301,5.231,0.479,7.915,0.514c1.218,0.023,2.366-0.076,3.392-0.217c1.026-0.16,2.318-0.438,3.866-0.834l0.196-8.604
					c-2.665-0.148-5.021-0.438-7.072-0.834c-3.928-0.586-6.564-1.537-7.868-2.869c-1.318-1.287-1.917-3.154-1.81-5.545
					c0.076-2.66,0.929-6.838,2.596-12.584c1.649-5.727,3.69-12.174,6.076-19.369c0.412-1.568,1.116-2.73,2.18-3.494
					c1.054-0.721,3.081-1.129,6.097-1.129c4.869-0.039,9.775-0.199,14.695-0.518c4.92-0.326,9.116-0.477,12.577-0.496
					c2.627-0.049,4.441,0.209,5.462,0.824c0.011,0.037,0.211,0.396,0.576,1.061c0.345,0.654,0.695,1.279,1.025,1.877
					c2.061,6.748,4.091,13.543,6.098,20.42c1.979,6.848,3.053,11.828,3.182,14.893c-0.018,2.441-0.974,4.26-2.88,5.391
					c-1.869,1.102-4.551,1.936-8.002,2.371c-1.465,0.428-2.798,0.635-4.054,0.635l0.8,9.02c3.972-0.414,8.936-0.703,14.857-0.842
					c5.932-0.15,10.871-0.23,14.853-0.209c6.21,0.049,11.431,0.279,15.667,0.637c4.206,0.338,7.679,0.557,10.368,0.615
					c1.169,0,2.222-0.109,3.128-0.309c0.916-0.207,1.979-0.525,3.148-0.941v-8.811C145.531,147.272,144.567,147.165,143.695,146.934
					z M83.729,90.792c-0.21,0.209-0.546,0.365-1.005,0.477c-0.45,0.088-1.006,0.148-1.609,0.148
					c-2.841,0.1-6.732,0.129-11.672,0.068c-4.948-0.029-9.745-0.068-14.392-0.068c-0.594,0.039-1.108,0.039-1.543,0.039
					c-0.421,0-0.786-0.172-1.083-0.455c-0.365-0.607-0.239-1.73,0.412-3.363c0.795-2.365,1.983-5.879,3.631-10.502
					c1.622-4.664,3.436-9.804,5.386-15.385c1.955-5.602,3.784-10.975,5.53-16.117c0.211-0.775,0.526-1.494,0.948-2.136
					c0.423-0.646,0.844-0.991,1.256-1.022c0.651,0.041,1.073,0.457,1.24,1.23c0.186,0.76,0.436,1.537,0.781,2.322
					c2.031,7.508,4.055,14.527,6.036,21.087c2.004,6.53,3.958,13.019,5.887,19.47c0.197,0.863,0.341,1.656,0.389,2.42
					C83.993,89.76,83.913,90.344,83.729,90.792z"/>
				<path fill="#FFFFFF" d="M470.808,68.721c-0.084-1.52-0.408-2.887-0.997-4.188c-3.443,0.025-6.914,0.158-10.392,0.426
					c-3.509,0.239-6.367,0.377-8.601,0.408c-1.654,0.02-3.342,0.031-5.047,0.031c-1.752-0.012-3.293-0.161-4.666-0.439
					c-0.979,0.022-1.786,0.12-2.457,0.301c-0.67,0.188-1.271,0.297-1.764,0.314c-0.473,0.695-0.692,1.955-0.605,3.801
					c0.069,1.825,0.276,3.146,0.605,3.95c0.925,0.397,1.939,0.615,3.022,0.664c1.082,0.039,2.079,0.101,3.037,0.17
					c2.234,0.417,3.917,1.054,5.12,1.925c1.149,0.854,1.738,1.954,1.738,3.346c0,1.189-0.273,2.629-0.812,4.305
					c-0.558,1.668-1.305,3.932-2.215,6.816c-1.354,4.396-3.131,10.062-5.31,17.061c-2.188,6.984-4.525,13.564-6.998,19.746
					c-0.189,0.664-0.425,1.359-0.716,2.043c-0.287,0.674-0.728,1.033-1.322,1.094c-0.393-0.041-0.733-0.377-1.035-1.062
					c-0.308-0.654-0.565-1.418-0.773-2.311c-1.584-4.197-3.271-8.9-5.078-14.121c-1.802-5.219-3.461-10.104-4.982-14.617
					c-1.534-4.506-2.694-7.809-3.473-9.922c-0.699-1.996-1.259-3.832-1.629-5.508c-0.395-1.646-0.593-3.105-0.593-4.387
					c0.08-1.904,1.006-3.206,2.771-3.91c1.787-0.734,4.032-1.312,6.729-1.768c0.274-1.875,0.315-3.424,0.115-4.733
					c-0.187-1.312-0.485-2.372-0.921-3.196c-3.694,0.1-7.12,0.25-10.308,0.377c-3.137,0.15-7.519,0.238-13.127,0.238
					c-5.378,0-9.648,0-12.788,0.07c-3.146,0.031-5.553,0.139-7.212,0.359c-0.266,1.348-0.412,2.668-0.412,3.897
					c-0.013,1.222,0,2.383,0.009,3.425c0.139,0.316,0.385,0.546,0.796,0.664c0.396,0.1,0.804,0.188,1.228,0.17
					c1.255,0.546,2.265,1.111,3.035,1.686c0.793,0.578,1.786,1.776,3.021,3.583c0.08,0.109,0.511,1.082,1.316,2.959
					c0.816,1.855,1.619,3.91,2.415,6.189c0.834,2.266,1.268,4.039,1.328,5.352c-0.038,0.824-0.112,1.625-0.306,2.418
					c-0.175,0.775-0.262,1.58-0.3,2.404c-1.73,5.652-3.374,10.695-4.902,15.092c-1.527,4.377-3.474,9.516-5.802,15.371
					c-0.208,0.484-0.457,1.02-0.741,1.598c-0.279,0.578-0.584,0.883-0.885,0.953c-0.473-0.021-0.822-0.27-1.027-0.705
					c-0.217-0.486-0.413-1.082-0.575-1.846c-0.645-1.398-2.033-4.691-4.18-9.846c-2.145-5.17-4.428-10.775-6.872-16.83
					c-2.433-6.053-4.396-11.193-5.937-15.32c-0.694-1.834-1.26-3.363-1.624-4.574c-0.392-1.191-0.583-2.57-0.583-4.078
					c0.029-1.757,0.794-3.097,2.3-4.009c1.523-0.914,3.642-1.438,6.399-1.668c0.217-1.369,0.315-2.629,0.326-3.719
					c0.021-1.125-0.145-2.512-0.537-4.209c-2.769-0.168-6.066-0.107-9.966,0.12c-3.849,0.247-8.076,0.337-12.654,0.288
					c-2.266,0-4.796-0.01-7.526-0.031c-2.729-0.01-5.336-0.078-7.829-0.188c-3.124-0.092-5.148,0.268-6.056,1.053
					c-0.928,0.792-1.312,1.994-1.208,3.551c-0.029,1.944,0.028,3.543,0.202,4.823c2.299,0.625,4.224,1.618,5.778,3.065
					c1.562,1.418,2.932,3.502,4.121,6.192c2.49,5.809,5.557,13,9.209,21.635c3.66,8.619,7.493,17.621,11.519,26.99
					c4.02,9.357,7.795,18.02,11.392,25.947c0,0,10.062,0.023,13.258-1.189c1.843-1.529,3.342-3.842,4.481-6.984
					c1.876-5.004,3.486-9.35,4.9-13.1c1.411-3.742,2.849-7.604,4.29-11.531c1.461-3.918,3.192-8.664,5.161-14.24
					c0.128-0.465,0.331-0.992,0.671-1.559c0.294-0.605,0.623-0.881,0.95-0.961c0.368,0.051,0.62,0.238,0.759,0.645
					c0.134,0.398,0.273,0.795,0.46,1.252c2.472,6.736,5.344,14.447,8.53,23.17c3.082,8.406,6.129,16.572,9.119,24.492
					c2.766-0.031,9.521-0.221,12.037-1.182c0.594-0.23,1.13-0.615,1.662-1.031c0.358-0.398,0.713-0.805,1.1-1.312
					c0.844-1.102,1.545-2.322,2.061-3.611c4.334-11.135,8.803-22.723,13.432-34.699c4.645-11.988,8.901-23.043,12.832-33.164
					c1.202-2.975,2.644-5.288,4.321-6.887c1.683-1.637,3.67-2.809,5.974-3.621C470.81,71.619,470.895,70.209,470.808,68.721z"/>
			</g>
			<g>
				<path fill="#FFFFFF" d="M714.062,64.215h-6.028v-2.097h14.438v2.097h-6.018v16.602h-2.394L714.062,64.215L714.062,64.215z"/>
				<path fill="#FFFFFF" d="M724.529,62.118h3.287l5.69,15.712l5.712-15.712h3.28v18.701h-2.282V65.26h-0.032l-5.646,15.559h-2.045
					l-5.653-15.559h-0.033v15.559h-2.278V62.118L724.529,62.118z"/>
			</g>
		</g>
	</g>
</g>
</svg>
